Input #0, mov,mp4,m4a,3gp,3g2,mj2, from '/home/hbattu/projects/huberman-gpt/huberman-audio/mp3/tmpt6zt6xak.mp4':
  Metadata:
    major_brand     : dash
    minor_version   : 0
    compatible_brands: iso6mp41
    creation_time   : 2021-04-21T00:51:01.000000Z
  Duration: 01:39:42.99, start: 0.000000, bitrate: 129 kb/s
    Stream #0:0(und): Audio: aac (LC) (mp4a / 0x6134706D), 44100 Hz, stereo, fltp, 0 kb/s (default)
    Metadata:
      creation_time   : 2021-04-21T00:51:01.000000Z
      handler_name    : ISO Media file produced by Google Inc.
Stream mapping:
  Stream #0:0 -> #0:0 (aac (native) -> mp3 (libmp3lame))
Press [q] to stop, [?] for help
[graph_0_in_0_0 @ 0x562f17839200] tb:1/44100 samplefmt:fltp samplerate:44100 chlayout:0x3
Output #0, mp3, to '../huberman-audio/mp3/17O5mgXZ9ZU.mp3':
  Metadata:
    major_brand     : dash
    minor_version   : 0
    compatible_brands: iso6mp41
    TSSE            : Lavf58.29.100
    Stream #0:0(und): Audio: mp3 (libmp3lame), 44100 Hz, stereo, fltp, delay 1105 (default)
    Metadata:
      creation_time   : 2021-04-21T00:51:01.000000Z
      handler_name    : ISO Media file produced by Google Inc.
      encoder         : Lavc58.54.100 libmp3lame
No more output streams to write to, finishing.
size=   93485kB time=01:39:43.00 bitrate= 128.0kbits/s speed=81.8x    
[AVIOContext @ 0x562f1772c900] Statistics: 0 seeks, 147 writeouts
video:0kB audio:93485kB subtitle:0kB other streams:0kB global headers:0kB muxing overhead: 0.000361%
Input file #0 (/home/hbattu/projects/huberman-gpt/huberman-audio/mp3/tmpt6zt6xak.mp4):
  Input stream #0:0 (audio): 257666 packets read (95727885 bytes); 257666 frames decoded (263849984 samples); 
  Total: 257666 packets (95727885 bytes) demuxed
Output file #0 (../huberman-audio/mp3/17O5mgXZ9ZU.mp3):
  Output stream #0:0 (audio): 229037 frames encoded (263849984 samples); 229038 packets muxed (95728535 bytes); 
  Total: 229038 packets (95728535 bytes) muxed
[AVIOContext @ 0x562f17754600] Statistics: 2 seeks, 367 writeouts
[AVIOContext @ 0x562f17735880] Statistics: 96828813 bytes read, 0 seeks
